HIERARCHY
ROOT joint_Root
{
	OFFSET 0.0 0.0 0.0
	CHANNELS 6 Xposition Yposition Zposition Zrotation Xrotation Yrotation 
	JOINT Hips
	{
		OFFSET -0.726466 93.3139 -2.00062
		CHANNELS 6 Xposition Yposition Zposition Zrotation Xrotation Yrotation 
		JOINT Spine
		{
			OFFSET 15.7357 0.0 0.0
			CHANNELS 6 Xposition Yposition Zposition Zrotation Xrotation Yrotation 
			JOINT Chest
			{
				OFFSET 8.98455 -0.406207 0.0
				CHANNELS 6 Xposition Yposition Zposition Zrotation Xrotation Yrotation 
				JOINT Neck
				{
					OFFSET 16.3773 0.0 0.0
					CHANNELS 6 Xposition Yposition Zposition Zrotation Xrotation Yrotation 
					JOINT Head
					{
						OFFSET 6.45672 0.0 0.0
						CHANNELS 6 Xposition Yposition Zposition Zrotation Xrotation Yrotation 
						End Site
						{
							OFFSET 0.0 0.0 0.0
						}
					}
				}
				JOINT Shoulder_L
				{
					OFFSET 12.9942 -0.242716 4.98039
					CHANNELS 6 Xposition Yposition Zposition Zrotation Xrotation Yrotation 
					JOINT UpperArm_L
					{
						OFFSET 5.34809 0.0 0.0
						CHANNELS 6 Xposition Yposition Zposition Zrotation Xrotation Yrotation 
						JOINT LowerArm_L
						{
							OFFSET 24.3286 1.87007e-05 0.0
							CHANNELS 6 Xposition Yposition Zposition Zrotation Xrotation Yrotation 
							JOINT Hand_L
							{
								OFFSET 22.2916 0.0 0.0
								CHANNELS 6 Xposition Yposition Zposition Zrotation Xrotation Yrotation 
								End Site
								{
									OFFSET 0.0 0.0 0.0
								}
							}
						}
					}
				}
				JOINT Shoulder_R
				{
					OFFSET 12.9945 -0.242716 -4.98039
					CHANNELS 6 Xposition Yposition Zposition Zrotation Xrotation Yrotation 
					JOINT UpperArm_R
					{
						OFFSET -5.34813 0.0 0.0
						CHANNELS 6 Xposition Yposition Zposition Zrotation Xrotation Yrotation 
						JOINT LowerArm_R
						{
							OFFSET -24.3289 0.000322201 0.0
							CHANNELS 6 Xposition Yposition Zposition Zrotation Xrotation Yrotation 
							JOINT Hand_R
							{
								OFFSET -22.2915 -0.000108084 0.0
								CHANNELS 6 Xposition Yposition Zposition Zrotation Xrotation Yrotation 
								End Site
								{
									OFFSET 0.0 0.0 0.0
								}
							}
						}
					}
				}
			}
		}
		JOINT UpperLeg_L
		{
			OFFSET -2.19248 -6.46944 0.0
			CHANNELS 6 Xposition Yposition Zposition Zrotation Xrotation Yrotation 
			JOINT LowerLeg_L
			{
				OFFSET 39.0811 0.0 -1.23785e-05
				CHANNELS 6 Xposition Yposition Zposition Zrotation Xrotation Yrotation 
				JOINT Foot_L
				{
					OFFSET 40.9854 0.0 -1.26872e-05
					CHANNELS 6 Xposition Yposition Zposition Zrotation Xrotation Yrotation 
					JOINT Toes_L
					{
						OFFSET 11.7543 0.0 0.0
						CHANNELS 6 Xposition Yposition Zposition Zrotation Xrotation Yrotation 
						End Site
						{
							OFFSET 0.0 0.0 0.0
						}
					}
				}
			}
		}
		JOINT UpperLeg_R
		{
			OFFSET -2.19251 6.46944 0.0
			CHANNELS 6 Xposition Yposition Zposition Zrotation Xrotation Yrotation 
			JOINT LowerLeg_R
			{
				OFFSET -39.0811 -0.00228153 -0.0401928
				CHANNELS 6 Xposition Yposition Zposition Zrotation Xrotation Yrotation 
				JOINT Foot_R
				{
					OFFSET -40.9854 0.0 0.0
					CHANNELS 6 Xposition Yposition Zposition Zrotation Xrotation Yrotation 
					JOINT Toes_R
					{
						OFFSET -11.7543 0.0 0.0
						CHANNELS 6 Xposition Yposition Zposition Zrotation Xrotation Yrotation 
						End Site
						{
							OFFSET 0.0 0.0 0.0
						}
					}
				}
			}
		}
	}
}
MOTION
Frames:	7
Frame Time:	0.0333333
0.000000 0.000000 0.000000 0.000000 0.000000 -0.000000 -1.800060 92.493100 -2.274240 88.205600 0.423568 3.129170 15.735700 0.000005 -0.000001 84.483600 85.575300 -83.735900 8.984550 -0.406207 -0.000000 1.048710 -0.894152 1.502450 16.377300 -0.000001 -0.000001 2.422250 -2.258560 0.619475 6.456720 -0.000001 -0.000000 4.212600 -2.582420 -1.918780 12.994200 -0.242716 4.980390 -89.961600 -0.116937 -71.821600 5.348090 -0.000007 -0.000001 -67.796000 41.366800 -14.536400 24.328600 0.000019 0.000005 1.161200 2.650700 -23.666500 22.291600 -0.000001 0.000005 4.547890 5.512470 -7.044090 12.994500 -0.242716 -4.980390 88.231300 5.695110 -72.715600 -5.348130 -0.000001 -0.000004 -67.402000 41.346000 -11.700200 -24.328900 0.000322 -0.000009 2.973620 7.560230 -21.552100 -22.291500 -0.000108 -0.000004 8.395140 5.409060 -3.233990 -2.192480 -6.469440 -0.000000 -175.236000 -4.536280 -3.912080 39.081100 -0.000007 -0.000012 -0.092275 0.231393 21.741300 40.985400 -0.000006 -0.000013 -0.736611 4.368160 -64.997300 11.754300 -0.000000 0.000003 -0.000054 -0.000607 -16.601100 -2.192510 6.469440 -0.000001 -178.991000 13.962300 179.260000 -39.081100 -0.002282 -0.040193 0.004255 -0.002803 18.368200 -40.985400 0.000008 0.000006 5.045670 5.313340 -65.309000 -11.754300 -0.000006 -0.000006 -0.006120 -0.071922 -19.500300
0.000000 0.000000 0.000000 0.000000 0.000000 -0.000000 -1.783430 92.488200 -2.306830 88.183300 0.497884 3.104110 15.735700 0.000005 -0.000001 84.074700 85.572600 -83.376400 8.984550 -0.406207 -0.000000 1.047930 -0.954660 1.404200 16.377300 -0.000001 -0.000001 2.404160 -2.338680 0.609379 6.456720 -0.000001 -0.000000 4.115700 -2.664520 -1.796590 12.994200 -0.242716 4.980390 -89.937400 -0.189876 -71.760500 5.348090 -0.000007 -0.000001 -67.946000 41.260200 -14.441000 24.328600 0.000019 0.000005 1.110990 2.546060 -23.583100 22.291600 -0.000001 0.000005 4.593730 5.513290 -7.078430 12.994500 -0.242716 -4.980390 88.051900 6.110950 -72.280400 -5.348130 -0.000001 -0.000004 -66.745500 39.420500 -11.939300 -24.328900 0.000322 -0.000009 3.985030 9.287750 -23.352300 -22.291500 -0.000108 -0.000004 8.615790 5.410350 -3.276900 -2.192480 -6.469440 -0.000000 -175.226000 -4.460150 -4.014820 39.081100 -0.000007 -0.000012 -0.093158 0.232661 21.821300 40.985400 -0.000006 -0.000013 -0.733070 4.354740 -65.006400 11.754300 -0.000000 0.000003 -0.000055 -0.000618 -16.601500 -2.192510 6.469440 -0.000001 -178.988000 14.039200 179.192000 -39.081100 -0.002282 -0.040193 0.001134 0.006582 18.405700 -40.985400 0.000008 0.000006 4.972740 5.350810 -65.296200 -11.754300 -0.000006 -0.000006 -0.006329 -0.073798 -19.576800
0.000000 0.000000 0.000000 0.000000 0.000000 -0.000000 -1.771300 92.504100 -2.351810 88.201500 0.536889 3.087000 15.735700 0.000005 -0.000001 83.103500 85.561800 -82.475500 8.984550 -0.406207 -0.000000 1.052720 -1.102180 1.265140 16.377300 -0.000001 -0.000001 2.417170 -2.395660 0.557411 6.456720 -0.000001 -0.000000 4.035690 -2.615310 -1.659010 12.994200 -0.242716 4.980390 -89.880800 -0.360357 -71.693200 5.348090 -0.000007 -0.000001 -68.314400 41.027300 -14.140100 24.328600 0.000019 0.000005 1.100340 2.514060 -23.646400 22.291600 -0.000001 0.000005 4.625970 5.513180 -7.074020 12.994500 -0.242716 -4.980390 87.867100 6.471900 -71.715300 -5.348130 -0.000001 -0.000004 -66.070300 35.535300 -12.547200 -24.328900 0.000322 -0.000009 4.809980 9.759910 -26.404600 -22.291500 -0.000108 -0.000004 10.515300 5.416460 -3.479920 -2.192480 -6.469440 -0.000000 -175.273000 -4.416460 -4.021500 39.081100 -0.000007 -0.000012 -0.090377 0.226857 21.721800 40.985400 -0.000006 -0.000013 -0.720384 4.337160 -64.921700 11.754300 -0.000000 0.000003 -0.000048 -0.000546 -16.598800 -2.192510 6.469440 -0.000001 -179.010000 14.127000 179.190000 -39.081100 -0.002282 -0.040193 0.002374 0.002869 18.321500 -40.985400 0.000008 0.000006 4.998880 5.394500 -65.233200 -11.754300 -0.000006 -0.000006 -0.006170 -0.072371 -19.518600
0.000000 0.000000 0.000000 0.000000 0.000000 -0.000000 -1.737900 92.502100 -2.409570 88.179400 0.370942 3.092140 15.735700 0.000005 -0.000001 81.907300 85.563200 -81.333300 8.984550 -0.406207 -0.000000 1.026290 -1.282440 1.158650 16.377300 -0.000001 -0.000001 2.524800 -2.374200 0.545714 6.456720 -0.000001 -0.000000 4.029840 -2.413450 -1.656170 12.994200 -0.242716 4.980390 -89.823600 -0.531919 -71.651100 5.348090 -0.000007 -0.000001 -68.759900 40.789700 -13.652900 24.328600 0.000019 0.000005 1.077200 2.455570 -23.694000 22.291600 -0.000001 0.000005 4.595060 5.513940 -7.105700 12.994500 -0.242716 -4.980390 87.786400 6.515480 -71.188500 -5.348130 -0.000001 -0.000004 -65.541100 30.255300 -13.776700 -24.328900 0.000322 -0.000009 4.340320 7.375240 -30.601400 -22.291500 -0.000108 -0.000004 12.526000 5.413120 -3.368890 -2.192480 -6.469440 -0.000000 -175.257000 -4.576640 -4.062540 39.081100 -0.000007 -0.000012 -0.091991 0.230196 21.782600 40.985400 -0.000006 -0.000013 -0.698485 4.353000 -64.925200 11.754300 -0.000000 0.000003 -0.000045 -0.000511 -16.597400 -2.192510 6.469440 -0.000001 -179.026000 14.105800 179.135000 -39.081100 -0.002282 -0.040193 -0.000958 0.012909 18.353500 -40.985400 0.000008 0.000006 4.871570 5.527490 -65.186500 -11.754300 -0.000006 -0.000006 -0.006219 -0.072812 -19.536600
0.000000 0.000000 0.000000 0.000000 0.000000 -0.000000 -1.676900 92.518300 -2.495530 88.114100 0.001101 3.065920 15.735700 0.000005 -0.000001 80.916800 85.586000 -80.411000 8.984550 -0.406207 -0.000000 0.958229 -1.423170 1.022810 16.377300 -0.000001 -0.000001 2.630330 -2.302920 0.630946 6.456720 -0.000001 -0.000000 4.143050 -2.150480 -1.610680 12.994200 -0.242716 4.980390 -89.784500 -0.648105 -71.609200 5.348090 -0.000007 -0.000001 -68.933500 40.747900 -13.326000 24.328600 0.000019 0.000005 1.040030 2.371770 -23.685200 22.291600 -0.000001 0.000005 4.443950 5.509880 -6.936650 12.994500 -0.242716 -4.980390 87.756900 6.436570 -70.740500 -5.348130 -0.000001 -0.000004 -64.455800 25.111200 -16.327600 -24.328900 0.000322 -0.000009 4.501730 6.269740 -35.795000 -22.291500 -0.000108 -0.000004 14.402400 5.402890 -3.032380 -2.192480 -6.469440 -0.000000 -175.237000 -4.829360 -4.084710 39.081100 -0.000007 -0.000012 -0.090202 0.225966 21.761000 40.985400 -0.000006 -0.000013 -0.675723 4.219890 -64.883800 11.754300 -0.000000 0.000003 -0.000047 -0.000534 -16.598300 -2.192510 6.469440 -0.000001 -178.982000 13.930900 179.063000 -39.081100 -0.002282 -0.040193 0.001123 0.006670 18.267300 -40.985400 0.000008 0.000006 4.903820 5.774070 -65.060200 -11.754300 -0.000006 -0.000006 -0.006213 -0.072761 -19.534500
0.000000 0.000000 0.000000 0.000000 0.000000 -0.000000 -1.581940 92.527500 -2.581270 88.042100 -0.577449 3.124110 15.735700 0.000005 -0.000001 80.698400 85.603400 -80.272900 8.984550 -0.406207 -0.000000 0.917459 -1.446140 0.861775 16.377300 -0.000001 -0.000001 2.814750 -2.244910 0.780270 6.456720 -0.000001 -0.000000 4.224430 -1.957770 -1.472400 12.994200 -0.242716 4.980390 -89.776400 -0.671159 -71.571600 5.348090 -0.000007 -0.000001 -68.971500 40.620000 -13.102100 24.328600 0.000019 0.000005 1.136850 2.617070 -23.489200 22.291600 -0.000001 0.000005 4.420140 5.510070 -6.944630 12.994500 -0.242716 -4.980390 87.784800 6.241500 -70.415000 -5.348130 -0.000001 -0.000004 -62.835500 20.276300 -20.014800 -24.328900 0.000322 -0.000009 5.924560 6.641500 -41.904200 -22.291500 -0.000108 -0.000004 15.926100 5.388800 -2.577470 -2.192480 -6.469440 -0.000000 -175.226000 -5.092630 -4.001440 39.081100 -0.000007 -0.000012 -0.088684 0.221922 21.782600 40.985400 -0.000006 -0.000013 -0.666613 3.923440 -64.895400 11.754300 -0.000000 0.000003 -0.000052 -0.000588 -16.600400 -2.192510 6.469440 -0.000001 -178.998000 13.775300 179.051000 -39.081100 -0.002282 -0.040193 0.001797 0.004634 18.245600 -40.985400 0.000008 0.000006 4.949310 6.213950 -64.972400 -11.754300 -0.000006 -0.000006 -0.006029 -0.071103 -19.466900
0.000000 0.000000 0.000000 0.000000 0.000000 -0.000000 -1.478000 92.521000 -2.646310 87.957200 -1.238830 3.153030 15.735700 0.000005 -0.000001 81.311400 85.645100 -80.979600 8.984550 -0.406207 -0.000000 0.848024 -1.335260 0.672936 16.377300 -0.000001 -0.000001 2.929250 -2.172500 0.981431 6.456720 -0.000001 -0.000000 4.394760 -1.967540 -1.216520 12.994200 -0.242716 4.980390 -89.759200 -0.717499 -71.448800 5.348090 -0.000007 -0.000001 -68.947800 40.401200 -13.126100 24.328600 0.000019 0.000005 1.247990 2.917540 -23.170500 22.291600 -0.000001 0.000005 4.457900 5.512690 -7.053280 12.994500 -0.242716 -4.980390 87.878100 5.928410 -70.265700 -5.348130 -0.000001 -0.000004 -61.276800 15.146500 -24.059700 -24.328900 0.000322 -0.000009 7.874850 6.799390 -49.440300 -22.291500 -0.000108 -0.000004 17.130200 5.363550 -1.788660 -2.192480 -6.469440 -0.000000 -175.204000 -5.504080 -3.993700 39.081100 -0.000007 -0.000012 -0.088935 0.220893 21.930500 40.985400 -0.000006 -0.000013 -0.640003 3.639250 -64.977800 11.754300 -0.000000 0.000003 -0.000050 -0.000561 -16.599300 -2.192510 6.469440 -0.000001 -179.035000 13.595500 178.986000 -39.081100 -0.002282 -0.040193 -0.002236 0.016817 18.294800 -40.985400 0.000008 0.000006 4.765130 6.728190 -64.893800 -11.754300 -0.000006 -0.000006 -0.006333 -0.073829 -19.578100
